<svg height="512" viewBox="0 0 512 512" width="512" xmlns="http://www.w3.org/2000/svg"><g id="Flat"><path d="m240 104h32v48h-32z" fill="#262d43"/><path d="m384 328h48v128h-48z" fill="#af7d4d"/><path d="m80 328h48v128h-48z" fill="#af7d4d"/><path d="m88 216a40.00049 40.00049 0 0 0 -32.00049 64 32.00416 32.00416 0 0 0 -7.97412 62.9978c-.0083.3342-.02539.66602-.02539 1.0022a40 40 0 0 0 80 0v-88a40 40 0 0 0 -40-40z" fill="#90c937"/><path d="m424 216a40.00049 40.00049 0 0 1 32.00049 64 32.00416 32.00416 0 0 1 7.97412 62.9978c.0083.33423.02539.666.02539 1.0022a40 40 0 0 1 -80 0v-88a40 40 0 0 1 40-40z" fill="#90c937"/><path d="m112 152h288v336h-288z" fill="#f0de9c"/><path d="m112 184h288v192h-288z" fill="#8ccee9"/><path d="m248 48-8 8v4.6863a27.31368 27.31368 0 0 0 8 19.3137 27.31368 27.31368 0 0 0 19.31369 8h4.68631l8-8 24 24-16 16h-11.71576a68.28421 68.28421 0 0 1 -48.28424-20 68.28421 68.28421 0 0 1 -20-48.28422v-11.71578l16-16z" fill="#8ccee9"/><path d="m160 408h48v80h-48z" fill="#f0c033"/><path d="m232 408h48v80h-48z" fill="#f0c033"/><path d="m304 408h48v80h-48z" fill="#f0c033"/><path d="m24 456h112v32h-112z" fill="#90c937"/><path d="m376 456h112v32h-112z" fill="#90c937"/><g fill="#a5d8ed"><path d="m120 208h8v16h-8z"/><path d="m120 192h8v8h-8z"/><path d="m176 208h8v16h-8z"/><path d="m176 192h8v8h-8z"/><path d="m232 208h8v16h-8z"/><path d="m232 192h8v8h-8z"/><path d="m296 208h8v16h-8z"/><path d="m296 192h8v8h-8z"/><path d="m352 208h8v16h-8z"/><path d="m352 192h8v8h-8z"/><path d="m120 256h8v16h-8z"/><path d="m120 240h8v8h-8z"/><path d="m176 256h8v16h-8z"/><path d="m176 240h8v8h-8z"/><path d="m232 256h8v16h-8z"/><path d="m232 240h8v8h-8z"/><path d="m296 256h8v16h-8z"/><path d="m296 240h8v8h-8z"/><path d="m352 256h8v16h-8z"/><path d="m352 240h8v8h-8z"/><path d="m120 304h8v16h-8z"/><path d="m120 288h8v8h-8z"/><path d="m176 304h8v16h-8z"/><path d="m176 288h8v8h-8z"/><path d="m232 304h8v16h-8z"/><path d="m232 288h8v8h-8z"/><path d="m296 304h8v16h-8z"/><path d="m296 288h8v8h-8z"/><path d="m352 304h8v16h-8z"/><path d="m352 288h8v8h-8z"/><path d="m120 352h8v16h-8z"/><path d="m120 336h8v8h-8z"/><path d="m176 352h8v16h-8z"/><path d="m176 336h8v8h-8z"/><path d="m232 352h8v16h-8z"/><path d="m232 336h8v8h-8z"/><path d="m296 352h8v16h-8z"/><path d="m296 336h8v8h-8z"/><path d="m352 352h8v16h-8z"/><path d="m352 336h8v8h-8z"/></g><path d="m168 208a24 24 0 0 1 -24 24h24z" fill="#37a0c5"/><path d="m224 208a24 24 0 0 1 -24 24h24z" fill="#37a0c5"/><path d="m344 208a24 24 0 0 1 -24 24h24z" fill="#37a0c5"/><path d="m400 208a24 24 0 0 1 -24 24h24z" fill="#37a0c5"/><path d="m288 208a24 24 0 0 1 -24 24h24z" fill="#37a0c5"/><path d="m168 256a24 24 0 0 1 -24 24h24z" fill="#37a0c5"/><path d="m224 256a24 24 0 0 1 -24 24h24z" fill="#37a0c5"/><path d="m344 256a24 24 0 0 1 -24 24h24z" fill="#37a0c5"/><path d="m400 256a24 24 0 0 1 -24 24h24z" fill="#37a0c5"/><path d="m288 256a24 24 0 0 1 -24 24h24z" fill="#37a0c5"/><path d="m168 304a24 24 0 0 1 -24 24h24z" fill="#37a0c5"/><path d="m224 304a24 24 0 0 1 -24 24h24z" fill="#37a0c5"/><path d="m344 304a24 24 0 0 1 -24 24h24z" fill="#37a0c5"/><path d="m400 304a24 24 0 0 1 -24 24h24z" fill="#37a0c5"/><path d="m288 304a24 24 0 0 1 -24 24h24z" fill="#37a0c5"/><path d="m168 352a24 24 0 0 1 -24 24h24z" fill="#37a0c5"/><path d="m224 352a24 24 0 0 1 -24 24h24z" fill="#37a0c5"/><path d="m344 352a24 24 0 0 1 -24 24h24z" fill="#37a0c5"/><path d="m400 352a24 24 0 0 1 -24 24h24z" fill="#37a0c5"/><path d="m288 352a24 24 0 0 1 -24 24h24z" fill="#37a0c5"/></g></svg>