<svg height="512" viewBox="0 0 512 512" width="512" xmlns="http://www.w3.org/2000/svg"><g id="Flat"><path d="m128 24h320v464h-320z" fill="#f0de9c"/><path d="m104 24h24v464h-24z" fill="#f0c033"/><path d="m48 24h24v464h-24z" fill="#f0c033"/><path d="m72 24h32v464h-32z" fill="#ea8804"/><g fill="#8ccee9"><rect height="32" rx="16" width="144" x="24" y="152"/><rect height="32" rx="16" width="144" x="24" y="240"/><rect height="32" rx="16" width="144" x="24" y="64"/><rect height="32" rx="16" transform="matrix(-1 0 0 -1 192 688)" width="144" x="24" y="328"/><rect height="32" rx="16" transform="matrix(-1 0 0 -1 192 864)" width="144" x="24" y="416"/><path d="m424 208a111.99839 111.99839 0 1 1 -44.52-89.39014 111.80839 111.80839 0 0 1 44.52 89.39014z"/></g><path d="m448 24v80a32 32 0 0 1 -32-32v-16h-16a32 32 0 0 1 -32-32z" fill="#f0c033"/><path d="m272 144-24 32v24l-16 48-16 16-.87988.22a112.03376 112.03376 0 0 1 26.27978-143.16995z" fill="#90c937"/><path d="m424 208a111.80839 111.80839 0 0 1 -40.57007 86.28l-7.42993-22.28-24-8-16-24 16-24h16l8-16-8-16h-16l-8-24 35.48-41.39014a111.79692 111.79692 0 0 1 44.52 89.39014z" fill="#90c937"/><path d="m448 488h-80a32 32 0 0 1 32-32h16v-16a32 32 0 0 1 32-32z" fill="#f0c033"/><path d="m448 72h40v40h-40z" fill="#e64042"/><path d="m448 112h40v40h-40z" fill="#f0c033"/><path d="m448 152h40v40h-40z" fill="#90c937"/><path d="m352 336-40 40h-10.75a109.25942 109.25942 0 0 1 -109.25-109.25v-10.75l40-40 40 40-16 16a38.63246 38.63246 0 0 0 11.31006 27.31006l1.37988 1.37988a38.63351 38.63351 0 0 0 27.31006 11.31006l16-16z" fill="#a8b4be"/><path d="m328 312-32 32a70.1573 70.1573 0 0 1 -49.93994-20.68994l-1.37012-1.37012a70.17491 70.17491 0 0 1 -20.68994-49.93994l32-32 16 16-16 16a38.63246 38.63246 0 0 0 11.31006 27.31006l1.37988 1.37988a38.63351 38.63351 0 0 0 27.31006 11.31006l16-16z" fill="#808595"/><path d="m283.716 307.716h56.569v56.569h-56.569z" fill="#c6d6e2" transform="matrix(.707 -.707 .707 .707 -146.205 319.029)"/><path d="m203.716 227.716h56.569v56.569h-56.569z" fill="#c6d6e2" transform="matrix(.707 -.707 .707 .707 -113.068 239.029)"/></g></svg>