<svg height="512" viewBox="0 0 512 512" width="512" xmlns="http://www.w3.org/2000/svg"><g id="Flat"><path d="m397 360h91v-112a32 32 0 0 0 -32-32h-59z" fill="#2f4054"/><path d="m392 360h64v-144h-42.5-21.5z" fill="#262d43"/><path d="m456 392.98v14.3501a42.141 42.141 0 0 1 -3.41992 16.6399l-11.13013 25.97a116.8676 116.8676 0 0 0 -9.16995 38.06h-188.28v-80h36l28.55005-34.26a85.50485 85.50485 0 0 1 27.44995-21.74l39.32007-13.10986h35.56993l13.11 13.10986a42.24015 42.24015 0 0 1 32 40.98z" fill="#8ccee9"/><path d="m384 344-32 32-16-24 37.1-12.367z" fill="#37a0c5"/><path d="m432 352-24 24-24-32h32v-8z" fill="#37a0c5"/><path d="m424 440-24 24h-72v-40h48l24-24z" fill="#8ccee9"/><path d="m328 424v40h-56a40.00166 40.00166 0 0 1 40-40z" fill="#f6d0b1"/><path d="m312.84473 347.57812-8-16a8.00091 8.00091 0 0 1 1.49853-9.23535l57.66651-57.667 11.31347 11.31445-53.58935 53.58985 5.42138 10.8418z" fill="#2f4054"/><path d="m272 472h-16v-8a56.06322 56.06322 0 0 1 56-56h57.373l26.55859-26.55957 11.31348 11.31445-28.90186 28.90235a8.00034 8.00034 0 0 1 -5.65669 2.34277h-60.68652a40.04552 40.04552 0 0 0 -40 40z" fill="#37a0c5"/><path d="m336 256v48a40 40 0 0 0 40 40h40v-4.6863a27.31368 27.31368 0 0 1 8-19.3137 27.31368 27.31368 0 0 0 8-19.31369v-44.68631z" fill="#f6d0b1"/><circle cx="360" cy="288" fill="#2f4054" r="8"/><circle cx="392" cy="288" fill="#2f4054" r="8"/><path d="m376 323.30469a19.25528 19.25528 0 0 1 -13.65674-5.64746 8.00018 8.00018 0 0 1 11.31348-11.31446 3.316 3.316 0 0 0 4.68652 0 8.00018 8.00018 0 0 1 11.31348 11.31446 19.25528 19.25528 0 0 1 -13.65674 5.64746z" fill="#df6080"/><path d="m424 216h32v56h-32z" fill="#8ccee9"/><path d="m424 216v48h-50.83008a31.87108 31.87108 0 0 1 -21.16992 8h-16a32.00409 32.00409 0 0 1 -32-32v-24z" fill="#2f4054"/><path d="m400 240a47.64105 47.64105 0 0 1 -6.43994 24h-20.39014l-.01-.01a31.9568 31.9568 0 0 0 10.84008-23.99z" fill="#262d43"/><circle cx="440" cy="288" fill="#37a0c5" r="24"/><path d="m403.31348 480h-59.31348v-16h56l16-16 11.31348 11.31445-18.34327 18.34278a8.00033 8.00033 0 0 1 -5.65673 2.34277z" fill="#37a0c5"/><path d="m240 488h-100a12 12 0 0 1 -12-12 12 12 0 0 1 12-12h100z" fill="#a8b4be"/><rect fill="#c6d6e2" height="24" rx="12" width="136" x="224" y="464"/><path d="m272.19449 443.70567-28.51268-74.133a14.93352 14.93352 0 0 0 -13.93813-9.57267h-104a14.93351 14.93351 0 0 0 -13.93813 20.29433l28.51268 74.133a14.93352 14.93352 0 0 0 13.93809 9.57267h104a14.93351 14.93351 0 0 0 13.93817-20.29433z" fill="#c6d6e2"/><path d="m244.31819 454.4273-28.51268-74.133a14.93351 14.93351 0 0 1 13.93813-20.2943 14.93352 14.93352 0 0 1 13.93813 9.5727l28.51268 74.133a14.93351 14.93351 0 0 1 -13.93809 20.2943 14.93352 14.93352 0 0 1 -13.93817-9.5727z" fill="#a8b4be"/><g fill="#90c937"><path d="m184 296h16v16h-16z"/><path d="m272 300.686v-76.686h-16v72h-48v16h52.687l13.656 13.657 11.314-11.314z"/><path d="m256 192h16v16h-16z"/></g><path d="m200 64h-4a20 20 0 0 1 -20-20 20 20 0 0 1 20-20h56.84447a35.15556 35.15556 0 0 1 35.15553 35.15555v.00007a53.8962 53.8962 0 0 1 -24 44.84438z" fill="#2f4054"/><path d="m264 112h-32a32 32 0 0 1 -32-32v-16a147.89458 147.89458 0 0 0 46.76836-7.58946l1.23164-.41054a54.62737 54.62737 0 0 1 16 38.62737z" fill="#f6d0b1"/><path d="m312 164.13v11.87h-128v-11.87a51.431 51.431 0 0 1 19.24-40.09 49.82386 49.82386 0 0 1 5.07007-3.58008 51.52712 51.52712 0 0 1 14.62987-6.18992l9.06006-2.27h32l9.06006 2.27a51.43092 51.43092 0 0 1 33.51 26.87988 51.45338 51.45338 0 0 1 5.42994 22.98012z" fill="#8ccee9"/><path d="m208 160h16v16h-16z" fill="#37a0c5"/><path d="m272 160h16v16h-16z" fill="#37a0c5"/><path d="m287.68994 120.46-15.68994 23.54-24-16v-16h16l9.06006 2.27a51.52712 51.52712 0 0 1 14.62988 6.19z" fill="#a8b4be"/><path d="m248 112v16l-24 16-15.68994-23.54a51.52712 51.52712 0 0 1 14.62988-6.19l9.06006-2.27z" fill="#c6d6e2"/><path d="m228.8 140.8 19.2 19.2 19.2-19.2-19.2-12.8z" fill="#e64042"/><path d="m240 152h16v24h-16z" fill="#e64042"/><path d="m48 208h-4a20 20 0 0 1 -20-20 20 20 0 0 1 20-20h56.84447a35.15556 35.15556 0 0 1 35.15553 35.15555v.00007a53.8962 53.8962 0 0 1 -24 44.84438z" fill="#2f4054"/><path d="m112 256h-32a32 32 0 0 1 -32-32v-16a147.89458 147.89458 0 0 0 46.76836-7.58946l1.23164-.41054a54.62737 54.62737 0 0 1 16 38.62737z" fill="#f6d0b1"/><path d="m160 308.13v11.87h-128v-11.87a51.431 51.431 0 0 1 19.24-40.09 49.82386 49.82386 0 0 1 5.07006-3.58 51.52712 51.52712 0 0 1 14.62988-6.19l9.06006-2.27h32l9.06006 2.27a51.43092 51.43092 0 0 1 33.51 26.87988 51.45338 51.45338 0 0 1 5.42994 22.98012z" fill="#8ccee9"/><path d="m56 304h16v16h-16z" fill="#37a0c5"/><path d="m120 304h16v16h-16z" fill="#37a0c5"/><path d="m135.68994 264.46-15.68994 23.54-24-16v-16h16l9.06006 2.27a51.52712 51.52712 0 0 1 14.62988 6.19z" fill="#a8b4be"/><path d="m96 256v16l-24 16-15.68994-23.54a51.52712 51.52712 0 0 1 14.62988-6.19l9.06006-2.27z" fill="#c6d6e2"/><path d="m76.8 284.8 19.2 19.2 19.2-19.2-19.2-12.8z" fill="#e64042"/><path d="m88 296h16v24h-16z" fill="#e64042"/></g></svg>