<svg height="512" viewBox="0 0 512 512" width="512" xmlns="http://www.w3.org/2000/svg"><g id="Flat"><path d="m392 64h56a40 40 0 0 1 40 40v184h-2.74522a109.25463 109.25463 0 0 1 -77.25473-32h-16.00005z" fill="#2f4054"/><path d="m352 64h96v224h-2.74522a109.25463 109.25463 0 0 1 -77.25473-32h-16.00005z" fill="#262d43"/><path d="m288.84473 259.57812-8-16a8.00157 8.00157 0 0 1 1.498-9.23535l48-48 11.31446 11.31446-43.92285 43.92285 5.42089 10.8418z" fill="#2f4054"/><path d="m464 304.02979v.80029a161.2879 161.2879 0 0 1 -11.52 59.96972l-8.60012 21.4902a166.2167 166.2167 0 0 0 -11.68994 53.71h-248.18994v-80l56-16 35.75-45.96a95.54644 95.54644 0 0 1 52.25-34.04l48-16 56 16 .92993.23a41.02315 41.02315 0 0 1 31.07007 39.79979z" fill="#8ccee9"/><path d="m408 248 24 16-32 24-24-32-32 24-16-16 16-16z" fill="#37a0c5"/><path d="m312 120v80a56 56 0 0 0 56 56h40v-12.6863a27.31368 27.31368 0 0 1 8-19.3137 27.31369 27.31369 0 0 0 8-19.31369v-84.68631z" fill="#f6d0b1"/><path d="m344 168h-16a8 8 0 0 1 0-16h16a8 8 0 0 1 0 16z" fill="#2f4054"/><path d="m392 168h-16a8 8 0 0 1 0-16h16a8 8 0 0 1 0 16z" fill="#2f4054"/><path d="m360 208a7.97772 7.97772 0 0 1 -5.65723-2.34277l-8-8a8.00157 8.00157 0 0 1 -1.498-9.23535l8-16a8.00005 8.00005 0 1 1 14.31054 7.15624l-5.42089 10.8418 3.92285 3.92285a8 8 0 0 1 -5.65727 13.65723z" fill="#f4c396"/><circle cx="336" cy="176" fill="#2f4054" r="8"/><circle cx="384" cy="176" fill="#2f4054" r="8"/><path d="m360 235.75293a43.80673 43.80673 0 0 1 -19.57812-4.59766 8.00005 8.00005 0 1 1 7.15624-14.31054 27.9117 27.9117 0 0 0 24.84376 0 8.00005 8.00005 0 1 1 7.15624 14.31054 43.80673 43.80673 0 0 1 -19.57812 4.59766z" fill="#df6080"/><path d="m416 64h32v104h-32z" fill="#8ccee9"/><circle cx="432" cy="184" fill="#8ccee9" r="24"/><path d="m432 216a32 32 0 1 1 32-32 32.03667 32.03667 0 0 1 -32 32zm0-48a16 16 0 1 0 16 16 16.01833 16.01833 0 0 0 -16-16z" fill="#37a0c5"/><path d="m416 64v64h-61.46a47.70576 47.70576 0 0 1 -26.54 8h-16a47.99956 47.99956 0 0 1 -48-48v-24z" fill="#2f4054"/><path d="m392 88a63.61931 63.61931 0 0 1 -14.09009 40h-23.36991a.0098.0098 0 0 0 -.01-.01 48.00616 48.00616 0 0 0 21.47-39.99z" fill="#262d43"/><path d="m312 408v-48h-16a48 48 0 0 0 -48 48z" fill="#f6d0b1"/><path d="m377.37012 424h-145.37012v-16a64.07207 64.07207 0 0 1 64-64h37.83008a46.86192 46.86192 0 0 0 33.35547-13.81445l21.5-21.5 11.31445 11.31445-21.5 21.5a62.76161 62.76161 0 0 1 -44.66992 18.5h-37.83008a48.05375 48.05375 0 0 0 -48 48h129.37012a55.01 55.01 0 0 0 38.62988-16l11.31445 11.31445a71.12531 71.12531 0 0 1 -49.94433 20.68555z" fill="#37a0c5"/><path d="m72 408h144a0 0 0 0 1 0 0v32a0 0 0 0 1 0 0h-144a16 16 0 0 1 -16-16 16 16 0 0 1 16-16z" fill="#a8b4be"/><rect fill="#c6d6e2" height="32" rx="16" width="176" x="192" y="408"/><path d="m187.45964 274.37892 37.88072 113.64217a15.17891 15.17891 0 0 1 -14.39998 19.97891h-128a15.17891 15.17891 0 0 1 -14.4-10.37892l-37.88074-113.64217a15.17891 15.17891 0 0 1 14.39998-19.97891h128a15.17891 15.17891 0 0 1 14.40002 10.37892z" fill="#c6d6e2"/><path d="m187.45964 274.37892 37.88072 113.64217a15.17891 15.17891 0 0 1 -14.39998 19.97891 15.17891 15.17891 0 0 1 -14.4-10.37892l-37.88074-113.64217a15.17891 15.17891 0 0 1 14.39998-19.97891 15.17891 15.17891 0 0 1 14.40002 10.37892z" fill="#a8b4be"/></g></svg>