<svg height="512" viewBox="0 0 512 512" width="512" xmlns="http://www.w3.org/2000/svg"><g id="Flat"><rect fill="#8ccee9" height="320" rx="32" width="464" x="24" y="64"/><path d="m64 96h384a8 8 0 0 1 8 8v232a0 0 0 0 1 0 0h-400a0 0 0 0 1 0 0v-232a8 8 0 0 1 8-8z" fill="#f0de9c"/><path d="m24 336h464a0 0 0 0 1 0 0v16a32 32 0 0 1 -32 32h-400a32 32 0 0 1 -32-32v-16a0 0 0 0 1 0 0z" fill="#37a0c5"/><circle cx="256" cy="360" fill="#8ccee9" r="8"/><path d="m224 384v32a32 32 0 0 1 -32 32h128a32 32 0 0 1 -32-32v-32z" fill="#8ccee9"/><path d="m208 256h32v48h-32z" fill="#e64042"/><path d="m272 208h32v96h-32z" fill="#8ccee9"/><path d="m336 240h32v64h-32z" fill="#ea8804"/><path d="m400 200h32v104h-32z" fill="#37a0c5"/><path d="m437.66 133.65991-29.66 29.66016-50.34 50.33984a8.01492 8.01492 0 0 1 -11.31994 0l-58.34006-58.34985-58.34 58.34985-11.32-11.31991 64-64a8.01514 8.01514 0 0 1 11.31994 0l58.34 58.35 44.68006-44.69 29.66-29.66z" fill="#90c937"/><path d="m144 320h-16v-16a24.02687 24.02687 0 0 1 24-24 8.00917 8.00917 0 0 0 8-8v-24h16v24a24.02687 24.02687 0 0 1 -24 24 8.00917 8.00917 0 0 0 -8 8z" fill="#2f4054"/><path d="m120 192-8 8v4.6863a27.31366 27.31366 0 0 0 8 19.3137 27.31368 27.31368 0 0 0 19.31369 8h4.68631l8-8 24 24-16 16h-11.71576a68.28421 68.28421 0 0 1 -48.28422-20 68.2842 68.2842 0 0 1 -20-48.28422v-11.71578l16-16z" fill="#37a0c5"/><path d="m408 163.32v-11.32h-11.32l29.66-29.66 11.32 11.32z" fill="#68ba40"/><path d="m440 168h-16v-32h-32v-16h40a7.99977 7.99977 0 0 1 8 8z" fill="#90c937"/></g></svg>