<svg height="512" viewBox="0 0 512 512" width="512" xmlns="http://www.w3.org/2000/svg"><g id="Flat"><rect fill="#37a0c5" height="464" rx="16" width="256" x="24" y="24"/><path d="m48 464v-416h48a24 24 0 0 0 24 24h64a24 24 0 0 0 24-24h48v416z" fill="#8ccee9"/><path d="m136 40h32v16h-32z" fill="#2d80b5"/><circle cx="184" cy="48" fill="#2d80b5" r="8"/><path d="m24 56h24v16h-24z" fill="#2d80b5"/><path d="m256 56h24v16h-24z" fill="#2d80b5"/><path d="m24 440h24v16h-24z" fill="#2d80b5"/><path d="m256 440h24v16h-24z" fill="#2d80b5"/><g fill="#ea8804"><path d="m408 136h-40l-16-16h56z"/><path d="m424 120h16v16h-16z"/><path d="m384 248h48v16h-48z"/><path d="m448 248h32v16h-32z"/><path d="m392 184h24v16h-24z"/><path d="m432 184h32v16h-32z"/><path d="m384 312h32v16h-32z"/><path d="m432 312h32v16h-32z"/><path d="m384 376h64v16h-64z"/><path d="m464 376h16v16h-16z"/><path d="m480 184h16v16h-16z"/></g><path d="m176 216h208v176h-208z" fill="#e64042"/><path d="m176 216h208v8h-208z" fill="#d3393b"/><path d="m264 192h-48a40 40 0 0 1 0-80 56.06322 56.06322 0 0 1 56 56v16a8.00008 8.00008 0 0 1 -8 8zm-48-64a24 24 0 0 0 0 48h40v-8a40.04552 40.04552 0 0 0 -40-40z" fill="#f0c033"/><path d="m344 192h-48a8.00008 8.00008 0 0 1 -8-8v-16a56.06322 56.06322 0 0 1 56-56 40 40 0 0 1 0 80zm-40-16h40a24 24 0 0 0 0-48 40.04552 40.04552 0 0 0 -40 40z" fill="#f0c033"/><path d="m168 184h224v32h-224z" fill="#e64042"/><path d="m256 184h48v32h-48z" fill="#f0de9c"/><path d="m264 216h32v176h-32z" fill="#f0de9c"/><path d="m264 152h32a8 8 0 0 1 8 8v24a0 0 0 0 1 0 0h-48a0 0 0 0 1 0 0v-24a8 8 0 0 1 8-8z" fill="#f0de9c"/><path d="m256 176h48v8h-48z" fill="#f0c033"/><path d="m264 216h32v8h-32z" fill="#f0c033"/></g></svg>